<svg enable-background="new 0 0 24 24" height="512" viewBox="0 0 24 24" width="512" xmlns="http://www.w3.org/2000/svg"><g id="color"><g><circle cx="12" cy="12" fill="#ffd54f" r="10.8"/></g><g><circle cx="7" cy="10" fill="#6d4c41" r="1.8"/></g><g><circle cx="17" cy="10" fill="#6d4c41" r="1.8"/></g></g><g id="regular"><g><path d="m12 24c-6.617 0-12-5.383-12-12s5.383-12 12-12 12 5.383 12 12-5.383 12-12 12zm0-22.5c-5.79 0-10.5 4.71-10.5 10.5s4.71 10.5 10.5 10.5 10.5-4.71 10.5-10.5-4.71-10.5-10.5-10.5z"/></g><g><path d="m7 12c-1.103 0-2-.897-2-2s.897-2 2-2 2 .897 2 2-.897 2-2 2zm0-2.5c-.276 0-.5.224-.5.5s.224.5.5.5.5-.224.5-.5-.224-.5-.5-.5z"/></g><g><path d="m17 12c-1.103 0-2-.897-2-2s.897-2 2-2 2 .897 2 2-.897 2-2 2zm0-2.5c-.276 0-.5.224-.5.5s.224.5.5.5.5-.224.5-.5-.224-.5-.5-.5z"/></g><g><path d="m17.25 19.675c-.192 0-.384-.073-.53-.22-1.261-1.261-2.937-1.955-4.72-1.955s-3.459.694-4.72 1.955c-.293.293-.768.293-1.061 0s-.293-.768 0-1.061c1.545-1.544 3.597-2.394 5.781-2.394s4.236.85 5.78 2.395c.293.293.293.768 0 1.061-.146.146-.338.219-.53.219z"/></g><g><path d="m9.25 7.333c-.143 0-.288-.041-.416-.126l-2.5-1.667c-.345-.229-.438-.695-.208-1.04s.695-.438 1.04-.208l2.5 1.667c.345.23.438.695.208 1.04-.145.217-.382.334-.624.334z"/></g><g><path d="m14.75 7.333c-.242 0-.48-.117-.625-.334-.23-.345-.137-.81.208-1.04l2.5-1.667c.343-.23.81-.137 1.04.208s.137.81-.208 1.04l-2.5 1.667c-.127.086-.271.126-.415.126z"/></g></g></svg>