<svg height="512pt" viewBox="0 -11 512.01176 512" width="512pt" xmlns="http://www.w3.org/2000/svg"><path d="m512 197.339844c0-18.496094-10.582031-34.730469-26.304688-42.667969 3.242188-6.527344 4.972657-13.78125 4.972657-21.332031 0-18.519532-10.605469-34.773438-26.371094-42.6875 4.84375-9.730469 6.296875-20.972656 3.949219-32.171875-4.84375-21.523438-25.195313-37.140625-48.40625-37.140625h-195.839844c-19.753906 0-55.59375 8.488281-71.550781 24.449218-1.984375 2.003907-3.117188 4.734376-3.117188 7.550782v192c0 4.03125 2.285157 7.722656 5.890625 9.535156l17.984375 8.980469 61.460938 133.164062v72.320313c0 3.21875 1.449219 6.269531 3.988281 8.296875.640625.535156 16.425781 13.035156 38.675781 13.035156 24.683594 0 64-39.0625 64-85.332031 0-29.121094-10.453125-65.515625-16.980469-85.332032h131.753907c28.609375 0 53.035156-21.207031 55.636719-48.257812 0-.019531 0-.0625 0-.105469 1.324218-15.234375-3.753907-29.847656-13.671876-40.707031 8.832032-8.808594 13.929688-20.777344 13.929688-33.597656zm0 0" fill="#ffcc80"/><path d="m155.070312 15.8125c-9.941406-10.195312-23.335937-15.8046875-37.738281-15.8046875h-64c-29.417969 0-53.332031 23.9335935-53.332031 53.3320315v170.667968c0 29.394532 23.914062 53.332032 53.332031 53.332032h106.667969c5.886719 0 10.667969-4.78125 10.667969-10.667969v-213.332031c0-14.402344-5.613281-27.796875-15.597657-37.527344zm0 0" fill="#455a64"/><path d="m277.332031 490.671875c-22.144531 0-37.992187-12.457031-38.675781-12.992187-2.519531-2.046876-3.988281-5.097657-3.988281-8.339844v-72.320313l-61.460938-133.140625-2.539062-1.28125v4.074219c0 5.886719-4.78125 10.667969-10.667969 10.667969h-106.667969c-29.417969 0-53.332031-23.9375-53.332031-53.332032v-170.667968c0-29.398438 23.914062-53.3320315 53.332031-53.3320315h64c23.082031 0 42.773438 14.7187495 50.199219 35.2851565 17.75-9.152344 41.664062-13.953125 56.46875-13.953125h195.820312c23.230469 0 43.5625 15.65625 48.339844 37.269531 2.453125 11.113281 1.023438 22.335937-3.863281 32.042969 15.765625 7.933594 26.371094 24.167968 26.371094 42.6875 0 7.53125-1.730469 14.785156-5.015625 21.332031 15.765625 7.9375 26.347656 24.171875 26.347656 42.667969 0 12.820312-5.097656 24.765625-13.867188 33.597656 9.964844 10.902344 15.039063 25.515625 13.652344 40.726562-2.496094 27.113282-26.941406 48.363282-55.636718 48.363282h-131.773438c6.503906 19.796875 16.957031 56.128906 16.957031 85.3125 0 46.269531-39.316406 85.332031-64 85.332031zm-21.332031-27.136719c4.414062 2.453125 12.136719 5.804688 21.332031 5.804688 11.691407 0 42.667969-29.078125 42.667969-64 0-37.527344-20.4375-91.671875-20.628906-92.203125-1.257813-3.265625-.8125-6.953125 1.171875-9.835938 2.007812-2.878906 5.292969-4.605469 8.789062-4.605469h146.796875c17.792969 0 32.894532-12.738281 34.386719-28.972656 1.132813-12.160156-4.691406-23.742187-15.167969-30.1875-3.285156-2.023437-5.226562-5.652344-5.074218-9.492187.167968-3.839844 2.367187-7.316407 5.78125-9.066407 9.023437-4.652343 14.613281-13.695312 14.613281-23.636718 0-13.460938-10.175781-24.769532-23.636719-26.304688-4.121094-.46875-7.597656-3.285156-8.917969-7.210937-1.324219-3.925781-.214843-8.277344 2.792969-11.113281 5.417969-5.164063 8.425781-12.03125 8.425781-19.371094 0-13.460938-10.175781-24.769532-23.636719-26.304688-4.117187-.46875-7.59375-3.285156-8.917968-7.210937-1.320313-3.925781-.210938-8.277344 2.796875-11.113281 7.039062-6.65625 9.855469-15.9375 7.742187-25.472657-2.625-11.925781-14.1875-20.566406-27.496094-20.566406h-195.820312c-17.324219 0-46.355469 8.128906-56.449219 18.21875-3.070312 3.050781-7.679687 3.988281-11.625 2.304687-3.988281-1.664062-6.59375-5.546874-6.59375-9.855468 0-17.644532-14.355469-32-32-32h-64c-17.640625 0-32 14.355468-32 32v170.667968c0 17.640626 14.359375 32 32 32h96v-10.667968c0-3.691406 1.921875-7.125 5.058594-9.066406 3.113281-1.941407 7.082031-2.132813 10.367187-.46875l21.332032 10.664062c2.175781 1.089844 3.90625 2.882812 4.90625 5.078125l64 138.667969c.664062 1.386718 1.003906 2.921875 1.003906 4.457031zm0 0"/><path d="m160 256.007812c-5.886719 0-10.667969-4.78125-10.667969-10.667968v-192c0-5.886719 4.78125-10.667969 10.667969-10.667969s10.667969 4.78125 10.667969 10.667969v192c0 5.886718-4.78125 10.667968-10.667969 10.667968zm0 0"/></svg>