<svg height="512pt" viewBox="0 0 512 512" width="512pt" xmlns="http://www.w3.org/2000/svg"><path d="m368 0c-43.902344 0-84.757812 19.796875-112 53.632812-27.242188-33.835937-68.097656-53.632812-112-53.632812-79.402344 0-144 64.597656-144 144 0 30.078125 9.300781 58.988281 26.921875 83.667969l194.390625 266.496093c.234375.300782.449219.554688.683594.832032 8.0625 10.667968 20.691406 17.003906 34.003906 17.003906s25.921875-6.335938 34.003906-17.003906c.234375-.277344.449219-.53125.683594-.832032l194.390625-266.496093c.019531-.042969.042969-.0625.0625-.082031 17.558594-24.597657 26.859375-53.507813 26.859375-83.585938 0-79.402344-64.597656-144-144-144zm0 0" fill="#f44336"/><path d="m256 512c-13.332031 0-26.003906-6.378906-34.070312-17.089844-.210938-.234375-.425782-.488281-.597657-.746094l-194.386719-266.515624c-17.644531-24.660157-26.945312-53.570313-26.945312-83.648438 0-79.402344 64.597656-144 144-144 43.925781 0 84.757812 19.796875 112 53.632812 27.242188-33.835937 68.074219-53.632812 112-53.632812 79.402344 0 144 64.597656 144 144 0 30.078125-9.300781 58.988281-26.878906 83.5625-.023438.023438-.042969.0625-.066406.085938l-194.386719 266.515624c-.191407.277344-.40625.511719-.621094.769532-8.0625 10.710937-20.714844 17.066406-34.046875 17.066406zm-17.960938-31.148438c.234376.277344.445313.535157.636719.8125 8.195313 11.457032 26.453125 11.457032 34.648438 0 .210937-.296874.425781-.554687.660156-.8125l193.8125-265.726562c14.957031-20.949219 22.871094-45.546875 22.871094-71.125 0-67.625-55.042969-122.667969-122.667969-122.667969-41.769531 0-80.277344 21.035157-103.039062 56.277344-3.925782 6.082031-13.996094 6.082031-17.921876 0-22.761718-35.242187-61.269531-56.277344-103.039062-56.277344-67.625 0-122.667969 55.042969-122.667969 122.667969 0 25.601562 7.914063 50.21875 22.890625 71.167969zm238.398438-259.476562h.214844zm0 0"/></svg>