<svg enable-background="new 0 0 24 24" height="512" viewBox="0 0 24 24" width="512" xmlns="http://www.w3.org/2000/svg"><g id="color"><g><circle cx="12" cy="12" fill="#ffd54f" r="10.8"/></g><g><path d="m18.625 14.599c-.127-.179-.331-.285-.55-.285h-12.15c-.219 0-.424.106-.55.285-.127.178-.159.407-.087.613.998 2.844 3.695 4.754 6.712 4.754s5.715-1.91 6.712-4.754c.072-.206.04-.435-.087-.613z" fill="#e53935"/></g><g><path d="m17.684 6.304c-.436 0-.849.135-1.184.372-.335-.237-.748-.372-1.184-.372-1.084 0-1.966.829-1.966 1.849 0 1.551 2.308 3.196 2.771 3.51.114.078.246.116.379.116s.265-.039.379-.116c.463-.314 2.771-1.959 2.771-3.51 0-1.02-.882-1.849-1.966-1.849z" fill="#e53935"/></g><g><path d="m8.684 6.304c-.436 0-.849.135-1.184.372-.335-.236-.748-.372-1.184-.372-1.084 0-1.966.829-1.966 1.849 0 1.551 2.308 3.196 2.771 3.51.114.078.246.116.379.116s.265-.039.379-.116c.463-.314 2.771-1.959 2.771-3.51 0-1.02-.882-1.849-1.966-1.849z" fill="#e53935"/></g></g><g id="regular"><g><path d="m12 24c-6.617 0-12-5.383-12-12s5.383-12 12-12 12 5.383 12 12-5.383 12-12 12zm0-22.5c-5.79 0-10.5 4.71-10.5 10.5s4.71 10.5 10.5 10.5 10.5-4.71 10.5-10.5-4.71-10.5-10.5-10.5z"/></g><g><path d="m12 20.28c-3.353 0-6.35-2.123-7.458-5.282-.08-.229-.044-.483.097-.682.14-.198.368-.316.611-.316h13.5c.243 0 .471.118.611.316.141.198.177.452.097.682-1.108 3.16-4.105 5.282-7.458 5.282zm-5.593-4.78c1.115 1.998 3.247 3.28 5.593 3.28s4.478-1.282 5.593-3.28z"/></g><g><path d="m16.5 12.083c-.147 0-.294-.043-.421-.129-.515-.349-3.079-2.177-3.079-3.9 0-1.133.98-2.054 2.185-2.054.484 0 .943.15 1.315.414.372-.264.831-.414 1.315-.414 1.205 0 2.185.921 2.185 2.054 0 1.723-2.564 3.551-3.079 3.9-.127.087-.274.129-.421.129zm-1.315-4.583c-.371 0-.685.254-.685.554 0 .572 1.058 1.632 2 2.354.942-.722 2-1.781 2-2.354 0-.3-.313-.554-.685-.554-.28 0-.537.143-.639.355-.248.522-1.105.522-1.354 0-.1-.212-.357-.355-.637-.355z"/></g><g><path d="m7.5 12.083c-.147 0-.294-.043-.421-.129-.515-.349-3.079-2.177-3.079-3.9 0-1.133.98-2.054 2.185-2.054.484 0 .943.15 1.315.414.372-.264.831-.414 1.315-.414 1.205 0 2.185.921 2.185 2.054 0 1.723-2.564 3.551-3.079 3.9-.127.087-.274.129-.421.129zm-1.315-4.583c-.372 0-.685.254-.685.554 0 .572 1.058 1.632 2 2.354.942-.722 2-1.781 2-2.354 0-.3-.313-.554-.685-.554-.28 0-.537.143-.639.355-.248.522-1.105.522-1.354 0-.1-.212-.357-.355-.637-.355z"/></g></g></svg>