<svg height="512pt" viewBox="0 -11 512 512" width="512pt" xmlns="http://www.w3.org/2000/svg"><path d="m512 293.332031c0-12.820312-5.121094-24.789062-13.910156-33.578125 9.921875-10.878906 15-25.515625 13.652344-40.808594-2.578126-27.074218-27.007813-48.277343-55.636719-48.277343h-131.730469c6.503906-19.796875 16.957031-56.085938 16.957031-85.335938 0-46.269531-39.316406-85.332031-64-85.332031-22.269531 0-38.035156 12.5-38.699219 13.035156-2.515624 2.027344-3.964843 5.078125-3.964843 8.296875v72.320313l-61.441407 133.140625-17.984374 8.984375c-3.625 1.832031-5.910157 5.523437-5.910157 9.554687v192c0 2.839844 1.132813 5.546875 3.117188 7.554688 9.171875 9.171875 23.742187 14.867187 34.132812 17.960937 12.648438 4.054688 26.644531 6.484375 37.417969 6.484375h195.839844c23.191406 0 43.542968-15.613281 48.40625-37.246093 2.347656-11.117188.875-22.335938-3.96875-32.042969 15.785156-7.9375 26.390625-24.191407 26.390625-42.710938 0-7.550781-1.730469-14.804687-4.972657-21.332031 15.722657-7.9375 26.304688-24.191406 26.304688-42.667969zm0 0" fill="#ffcc80"/><path d="m160 213.332031h-106.667969c-29.394531 0-53.332031 23.9375-53.332031 53.335938v170.664062c0 29.398438 23.9375 53.335938 53.332031 53.335938h64c29.398438 0 53.335938-23.9375 53.335938-53.335938v-213.332031c0-5.886719-4.78125-10.667969-10.667969-10.667969zm0 0" fill="#455a64"/><path d="m117.332031 490.667969h-64c-29.417969 0-53.332031-23.914063-53.332031-53.335938v-170.664062c0-29.398438 23.914062-53.335938 53.332031-53.335938h106.667969c5.886719 0 10.667969 4.78125 10.667969 10.667969v4.074219l2.539062-1.28125 61.460938-133.140625v-72.320313c0-3.242187 1.46875-6.292969 3.988281-8.339843.683594-.535157 16.53125-12.992188 38.675781-12.992188 24.683594 0 64 39.0625 64 85.332031 0 29.183594-10.453125 65.515625-16.980469 85.335938h131.777344c28.714844 0 53.140625 21.246093 55.636719 48.339843 1.386719 15.210938-3.691406 29.824219-13.652344 40.726563 8.789063 8.832031 13.886719 20.777344 13.886719 33.597656 0 18.496094-10.582031 34.753907-26.324219 42.6875 3.261719 6.53125 4.992188 13.761719 4.992188 21.3125 0 18.496094-10.605469 34.773438-26.347657 42.6875 4.863282 9.730469 6.292969 20.929688 3.839844 32.066407-4.777344 21.589843-25.109375 37.246093-48.339844 37.246093h-195.820312c-14.828125 0-38.71875-4.796875-56.46875-13.929687-7.425781 20.542968-27.136719 35.265625-50.199219 35.265625zm-64-256c-17.640625 0-32 14.355469-32 32v170.664062c0 17.644531 14.359375 32 32 32h64c17.644531 0 32-14.355469 32-32 0-4.308593 2.605469-8.210937 6.59375-9.855469 3.96875-1.621093 8.574219-.722656 11.625 2.304688 10.070313 10.089844 39.105469 18.21875 56.449219 18.21875h195.820312c13.308594 0 24.871094-8.617188 27.496094-20.523438 2.113282-9.554687-.703125-18.835937-7.722656-25.449218-3.027344-2.859375-4.117188-7.191406-2.816406-11.136719 1.324218-3.945313 4.800781-6.742187 8.917968-7.230469 13.460938-1.558594 23.636719-12.867187 23.636719-26.328125 0-7.335937-3.007812-14.207031-8.425781-19.304687-3.027344-2.859375-4.117188-7.191406-2.816406-11.136719 1.324218-3.945313 4.800781-6.742187 8.917968-7.230469 13.484376-1.558594 23.660157-12.867187 23.660157-26.328125 0-9.941406-5.589844-18.984375-14.613281-23.59375-3.414063-1.75-5.632813-5.226562-5.78125-9.066406-.152344-3.859375 1.789062-7.488281 5.074218-9.492187 10.476563-6.445313 16.300782-18.027344 15.167969-30.210938-1.492187-16.234375-16.59375-28.949219-34.386719-28.949219h-146.796875c-3.496093 0-6.78125-1.726562-8.789062-4.605469-1.984375-2.878906-2.410157-6.570312-1.171875-9.835937.191406-.574219 20.628906-54.71875 20.628906-92.246094 0-34.921875-30.976562-64-42.667969-64-9.195312 0-16.894531 3.351563-21.332031 5.804688v68.863281c0 1.535156-.339844 3.070312-.980469 4.457031l-64 138.667969c-1.023437 2.199219-2.753906 3.988281-4.90625 5.078125l-21.335937 10.667969c-3.304688 1.640625-7.273438 1.449218-10.367188-.472656-3.15625-1.941407-5.078125-5.375-5.078125-9.066407v-10.664062zm0 0"/><path d="m160 448c-5.886719 0-10.667969-4.777344-10.667969-10.667969v-192c0-5.886719 4.78125-10.664062 10.667969-10.664062s10.667969 4.777343 10.667969 10.664062v192c0 5.890625-4.78125 10.667969-10.667969 10.667969zm0 0"/></svg>