<svg height="490pt" viewBox="0 -11 490.67593 490" width="490pt" xmlns="http://www.w3.org/2000/svg"><path d="m490.121094 177.773438c-1.320313-3.839844-4.691406-6.613282-8.703125-7.148438l-154.496094-20.480469-72.019531-144.382812c-3.585938-7.230469-15.511719-7.230469-19.09375 0l-72.023438 144.382812-154.496094 20.480469c-4.03125.535156-7.402343 3.308594-8.722656 7.148438-1.300781 3.839843-.320312 8.085937 2.558594 10.964843l113.300781 113.300781-30.867187 154.410157c-.789063 4.011719.746094 8.085937 3.988281 10.582031s7.636719 2.878906 11.242187 1.066406l144.554688-72.296875 144.554688 72.277344c1.535156.746094 3.15625 1.128906 4.777343 1.128906 2.285157 0 4.589844-.746093 6.488281-2.195312 3.21875-2.476563 4.777344-6.574219 3.988282-10.582031l-30.871094-154.390626 113.304688-113.300781c2.835937-2.859375 3.816406-7.105469 2.535156-10.964843zm0 0" fill="#ffc107"/><path d="m394.675781 469.207031c-1.621093 0-3.242187-.382812-4.777343-1.128906l-144.554688-72.277344-144.554688 72.277344c-3.582031 1.8125-8 1.429687-11.242187-1.066406-3.222656-2.476563-4.777344-6.574219-3.988281-10.582031l30.867187-154.390626-113.300781-113.28125c-2.859375-2.878906-3.839844-7.125-2.558594-10.984374 1.320313-3.839844 4.691406-6.613282 8.703125-7.148438l154.496094-20.480469 72.019531-144.382812c3.585938-7.230469 15.511719-7.230469 19.09375 0l72.023438 144.382812 154.496094 20.480469c4.011718.535156 7.402343 3.308594 8.703124 7.148438 1.300782 3.839843.320313 8.085937-2.558593 10.964843l-113.300781 113.300781 30.867187 154.390626c.789063 4.007812-.746094 8.085937-3.988281 10.582031-1.855469 1.449219-4.160156 2.195312-6.445313 2.195312zm-149.332031-96c1.621094 0 3.265625.382813 4.777344 1.132813l129.835937 64.914062-27.734375-138.621094c-.703125-3.5.40625-7.105468 2.925782-9.644531l102.058593-102.058593-138.710937-18.390626c-3.519532-.46875-6.570313-2.644531-8.148438-5.800781l-65.003906-130.304687-65.003906 130.324218c-1.578125 3.160157-4.628906 5.335938-8.148438 5.804688l-138.707031 18.390625 102.058594 102.058594c2.515625 2.515625 3.625 6.140625 2.921875 9.640625l-27.734375 138.625 129.835937-64.917969c1.515625-.769531 3.15625-1.152344 4.777344-1.152344zm0 0"/></svg>